<svg preserveAspectRatio="none" overflow="visible" style="display: block;" width="250" height="104" viewBox="0 0 250 104" fill="none" xmlns="http://www.w3.org/2000/svg">
<g id="Vector">
<path d="M0.0159908 103.002L0 47.864L29.9108 48.1266C36.499 48.1824 41.736 52.3209 43.6469 57.4145C45.9815 63.6224 44.2465 69.7586 39.4413 74.0563C43.7268 76.1972 46.0855 79.2613 47.3647 83.2327L47.3807 47.8003L77.1236 48.0948C83.6238 48.1585 89.2126 52.2652 91.2035 57.6612C93.4022 63.6303 91.7072 70.0132 86.75 73.921C90.6438 76.0858 92.9625 78.8713 94.6895 82.5005L94.8654 47.8799L118.732 47.9356C132.42 47.9675 143.269 56.8256 146.156 70.8967C149.05 57.5021 158.805 48.5564 172.061 47.0283C189.163 45.0546 203.883 56.8813 204.938 73.2843C206.049 90.5389 192.289 104.443 174.771 103.989C160.356 103.607 149.162 94.4307 146.172 80.089C142.966 93.1096 133.827 101.45 120.986 102.732L94.8574 103.114L94.5056 91.5178C92.7706 98.4101 84.6472 102.835 77.9951 102.875L47.5646 103.074C46.933 98.7682 47.7005 95.2186 47.3088 90.8095C45.5018 98.5295 37.2985 102.939 29.2711 102.955L0.0159908 103.002Z" fill="#F80000"/>
<path d="M120.443 40.1997C117.109 40.1997 114.19 40.1997 110.904 40.1997L94.8094 19.8173L94.4096 40.3987L83.5359 40.1997L83.5039 1.28136H93.8579L109.657 21.1544L109.625 1.44054L120.371 1.26544L120.435 40.1838L120.443 40.1997Z" fill="#FEFEFE"/>
<path d="M202.803 40.3828C199.205 40.3828 195.967 40.2952 192.033 40.2952L191.921 25.6033L178.273 25.667L178.209 40.3111L167.12 40.3828L167.096 1.4087L178.161 1.26544L178.321 15.8379H191.945V1.46441L202.723 1.28932L202.803 40.3748V40.3828Z" fill="#FDFDFD"/>
<path d="M29.3351 39.1412C20.1244 43.1604 9.21869 40.8842 1.63906 34.7639L7.85947 27.2428C14.7915 33.0607 25.0576 32.9811 24.9456 29.3519C24.8097 25.1815 13.5042 26.3355 6.78809 21.0032C3.34207 18.2654 2.80638 13.6413 4.06166 9.23217C7.00397 -1.1381 24.7218 -2.23641 34.9159 5.69052L29.3031 13.4662C23.1147 9.32767 15.1353 8.53179 14.6396 11.8267C13.7761 17.557 36.531 14.1109 36.0113 28.5879C35.8673 32.5275 34.0284 37.1038 29.3431 39.1492L29.3351 39.1412Z" fill="#FEFEFE"/>
<path d="M136.929 20.5814C136.825 25.4919 139.352 29.1529 143.142 30.5935C146.931 32.034 151.657 30.5935 154.679 26.5823L163.258 32.2409C158.589 39.4993 150.505 42.3167 141.926 40.8364C131.644 39.0616 125.096 29.9807 125.512 20.0083C125.935 9.75744 133.611 1.32115 144.325 0.493443C151.625 -0.0716288 158.485 2.36375 163.002 8.45221L154.647 15.0023C151.729 11.381 147.739 9.67786 143.429 10.9115C139.815 11.9461 137.017 15.7186 136.921 20.5893H136.929V20.5814Z" fill="#FEFEFE"/>
<path d="M229.076 0C217.515 0 208.152 9.32767 208.152 20.8281C208.152 32.3285 217.523 41.6562 229.076 41.6562C240.629 41.6562 250 32.3285 250 20.8281C250 9.32767 240.629 0 229.076 0ZM229.476 31.3098C224.271 31.5645 219.721 27.3145 219.25 21.8548C218.73 15.8777 222.368 11.1343 227.925 10.5215C233.601 9.89274 238.703 13.9199 238.878 20.6212C239.03 26.6937 234.761 31.0551 229.484 31.3098H229.476Z" fill="#FEFEFE"/>
<path d="M63.7713 1.05852L53.0814 1.08239L36.507 40.2554L48.2122 40.1679L50.8907 33.5382L66.018 33.6974C67.1293 36.6501 67.665 38.4806 69.0242 40.4066L80.4896 40.1599L63.7713 1.05852ZM54.1688 24.8075L58.4383 14.4133L62.3401 24.8313C59.3658 24.8313 57.1671 24.7995 54.1768 24.7995L54.1688 24.8075Z" fill="#FEFEFE"/>
</g>
</svg>
